<svg id="Ebene_1" data-name="Ebene 1" xmlns="http://www.w3.org/2000/svg" xmlns:xlink="http://www.w3.org/1999/xlink" viewBox="0 0 25.14 17.71"><defs><style>.cls-1{fill:none;}.cls-2{clip-path:url(#clip-path);}.cls-3{fill:#fff;}</style><clipPath id="clip-path" transform="translate(-0.08 0)"><rect class="cls-1" width="25.92" height="18"/></clipPath></defs><title>right-arrow-white</title><g class="cls-2"><path class="cls-3" d="M17,.27a.87.87,0,0,0-1.23,0l0,0a.87.87,0,0,0,0,1.24h0L22.13,8H.89a.91.91,0,0,0-.8,1,.89.89,0,0,0,.8.8H22.13L15.7,16.18a.9.9,0,0,0,0,1.27.89.89,0,0,0,1.26,0h0l8-8a.89.89,0,0,0,0-1.26h0Z" transform="translate(-0.08 0)"/></g></svg>